<svg xmlns="http://www.w3.org/2000/svg" xmlns:xlink="http://www.w3.org/1999/xlink" width="840" height="540" viewBox="0 0 840 540">
  <defs>
    <linearGradient id="bg" x1="0" y1="0" x2="0" y2="1">
      <stop offset="0%" stop-color="#111"/>
      <stop offset="100%" stop-color="#0A0A0A"/>
    </linearGradient>
    <radialGradient id="topGlow" cx="50%" cy="0%" r="60%">
      <stop offset="0%" stop-color="#0FFD0D" stop-opacity="0.07"/>
      <stop offset="100%" stop-color="#0FFD0D" stop-opacity="0"/>
    </radialGradient>
    <filter id="windowShadow">
      <feDropShadow dx="0" dy="4" stdDeviation="14" flood-color="#000" flood-opacity="0.5"/>
    </filter>
  </defs>

  <!-- Background -->
  <rect width="840" height="540" fill="url(#bg)"/>
  <rect width="840" height="300" fill="url(#topGlow)"/>

  <!-- ==================== APP WINDOW ==================== -->
  <g transform="translate(90, 28)" filter="url(#windowShadow)">
    <!-- Window frame -->
    <rect width="660" height="310" rx="10" fill="#1C1C1C" stroke="#3A3A3A" stroke-width="0.5"/>

    <!-- Title bar -->
    <rect width="660" height="34" rx="10" fill="#171717"/>
    <rect y="22" width="660" height="12" fill="#171717"/>
    <line y1="34" x2="660" y2="34" stroke="#3A3A3A" stroke-width="0.5"/>

    <!-- Traffic lights -->
    <circle cx="18" cy="17" r="5.5" fill="#FF5F57"/>
    <circle cx="36" cy="17" r="5.5" fill="#FEBC2E"/>
    <circle cx="54" cy="17" r="5.5" fill="#28C840"/>

    <!-- Logo + Title -->
    <svg x="284" y="5" width="22" height="22" viewBox="0 0 128 128">
      <g transform="translate(0,128) scale(0.1,-0.1)" fill="#E03030" stroke="none">
        <path d="M749 1068 c-36 -13 -91 -39 -123 -58 -72 -43 -177 -153 -211 -220 -50 -98 -68 -215 -44 -290 6 -19 10 -62 10 -96 -2 -71 23 -118 79 -147 74 -39 194 0 262 84 18 22 48 48 68 57 126 60 211 240 182 392 -11 63 -47 150 -62 150 -4 0 -13 -13 -18 -29 -17 -48 -82 -111 -153 -146 -37 -19 -76 -46 -88 -61 -12 -15 -21 -22 -21 -16 0 19 49 69 80 82 16 7 30 17 30 22 0 6 14 39 32 75 22 46 53 84 106 134 41 38 72 72 69 75 -3 4 -34 8 -69 10 -48 4 -78 -1 -129 -18z"/>
      </g>
    </svg>
    <text x="335" y="22" text-anchor="middle" fill="#CCC" font-family="system-ui, -apple-system, Helvetica, Arial, sans-serif" font-size="13" font-weight="500">ClawWork</text>

    <!-- Panel dividers -->
    <line x1="160" y1="34" x2="160" y2="310" stroke="#3A3A3A" stroke-width="0.5"/>
    <line x1="475" y1="34" x2="475" y2="310" stroke="#3A3A3A" stroke-width="0.5"/>

    <!-- ===== LEFT PANEL: Tasks ===== -->
    <text x="14" y="57" fill="#AAA" font-family="system-ui, -apple-system, Helvetica, Arial, sans-serif" font-size="10" font-weight="600" letter-spacing="1">TASKS</text>

    <!-- Active task -->
    <rect x="8" y="67" width="144" height="32" rx="6" fill="#1A3A1A"/>
    <circle cx="21" cy="83" r="4" fill="#0FFD0D"/>
    <text x="32" y="88" fill="#F5F5F7" font-family="system-ui, -apple-system, Helvetica, Arial, sans-serif" font-size="12" font-weight="500">Research API docs</text>

    <!-- Idle tasks -->
    <rect x="8" y="105" width="144" height="32" rx="6" fill="#242424"/>
    <circle cx="21" cy="121" r="4" fill="#777"/>
    <text x="32" y="126" fill="#BFBFBF" font-family="system-ui, -apple-system, Helvetica, Arial, sans-serif" font-size="12">Refactor auth flow</text>

    <rect x="8" y="143" width="144" height="32" rx="6" fill="#242424"/>
    <circle cx="21" cy="159" r="4" fill="#777"/>
    <text x="32" y="164" fill="#BFBFBF" font-family="system-ui, -apple-system, Helvetica, Arial, sans-serif" font-size="12">Write unit tests</text>

    <!-- Cron section -->
    <text x="14" y="200" fill="#AAA" font-family="system-ui, -apple-system, Helvetica, Arial, sans-serif" font-size="10" font-weight="600" letter-spacing="1">SCHEDULED</text>

    <rect x="8" y="210" width="144" height="28" rx="6" fill="none" stroke="#0FFD0D" stroke-width="0.6" stroke-opacity="0.4"/>
    <text x="21" y="228" fill="#0FFD0D" font-family="system-ui, -apple-system, Helvetica, Arial, sans-serif" font-size="11" opacity="0.8">Daily report</text>
    <text x="134" y="228" text-anchor="end" fill="#0FFD0D" font-family="system-ui, -apple-system, Helvetica, Arial, sans-serif" font-size="9" opacity="0.5">09:00</text>

    <rect x="8" y="244" width="144" height="28" rx="6" fill="none" stroke="#0FFD0D" stroke-width="0.6" stroke-opacity="0.4"/>
    <text x="21" y="262" fill="#0FFD0D" font-family="system-ui, -apple-system, Helvetica, Arial, sans-serif" font-size="11" opacity="0.8">Weekly digest</text>
    <text x="134" y="262" text-anchor="end" fill="#0FFD0D" font-family="system-ui, -apple-system, Helvetica, Arial, sans-serif" font-size="9" opacity="0.5">Mon</text>

    <!-- ===== CENTER PANEL: Active Work ===== -->
    <text x="172" y="57" fill="#AAA" font-family="system-ui, -apple-system, Helvetica, Arial, sans-serif" font-size="10" font-weight="600" letter-spacing="1">ACTIVE WORK</text>

    <!-- Streaming reply -->
    <text x="172" y="80" fill="#F0F0F2" font-family="system-ui, -apple-system, Helvetica, Arial, sans-serif" font-size="12.5">I'll analyze the API endpoints and</text>
    <text x="172" y="98" fill="#F0F0F2" font-family="system-ui, -apple-system, Helvetica, Arial, sans-serif" font-size="12.5">document the authentication flow</text>
    <!-- Cursor -->
    <rect x="387" y="88" width="2" height="14" rx="1" fill="#0FFD0D"/>

    <!-- Tool call card -->
    <rect x="172" y="114" width="290" height="46" rx="8" fill="#1E1E1E" stroke="#3A3A3A" stroke-width="0.5"/>
    <circle cx="189" cy="132" r="4.5" fill="#0FFD0D" opacity="0.9"/>
    <text x="200" y="136" fill="#0FFD0D" font-family="system-ui, -apple-system, Helvetica, Arial, sans-serif" font-size="12" font-weight="500">read_file</text>
    <text x="200" y="152" fill="#999" font-family="system-ui, -apple-system, Helvetica, Arial, sans-serif" font-size="11">src/auth/middleware.ts</text>

    <!-- Approval card -->
    <rect x="172" y="168" width="290" height="46" rx="8" fill="#2A2214" stroke="#FEBC2E" stroke-width="0.5" stroke-opacity="0.4"/>
    <circle cx="189" cy="186" r="4.5" fill="#FEBC2E" opacity="0.9"/>
    <text x="200" y="190" fill="#FEBC2E" font-family="system-ui, -apple-system, Helvetica, Arial, sans-serif" font-size="12" font-weight="500">exec — approval needed</text>
    <text x="200" y="206" fill="#999" font-family="system-ui, -apple-system, Helvetica, Arial, sans-serif" font-size="11">npm run db:migrate</text>

    <!-- Thinking trace -->
    <rect x="172" y="224" width="290" height="32" rx="6" fill="#1A1A1E"/>
    <text x="185" y="244" fill="#888" font-family="system-ui, -apple-system, Helvetica, Arial, sans-serif" font-size="11" font-style="italic">Analyzing dependency graph...</text>

    <!-- Cost bar -->
    <rect x="172" y="270" width="290" height="24" rx="4" fill="#1A1A1A" stroke="#333" stroke-width="0.5"/>
    <text x="183" y="286" fill="#888" font-family="system-ui, -apple-system, Helvetica, Arial, sans-serif" font-size="10.5">12.4k tokens · $0.03 · Sonnet 4</text>

    <!-- ===== RIGHT PANEL: Artifacts ===== -->
    <text x="487" y="57" fill="#AAA" font-family="system-ui, -apple-system, Helvetica, Arial, sans-serif" font-size="10" font-weight="600" letter-spacing="1">ARTIFACTS</text>

    <!-- Files -->
    <rect x="483" y="67" width="168" height="30" rx="6" fill="#242424"/>
    <text x="498" y="87" fill="#F0F0F2" font-family="system-ui, -apple-system, Helvetica, Arial, sans-serif" font-size="12">auth-flow.md</text>

    <rect x="483" y="102" width="168" height="30" rx="6" fill="#242424"/>
    <text x="498" y="122" fill="#F0F0F2" font-family="system-ui, -apple-system, Helvetica, Arial, sans-serif" font-size="12">diagram.png</text>

    <rect x="483" y="137" width="168" height="30" rx="6" fill="#242424"/>
    <text x="498" y="157" fill="#F0F0F2" font-family="system-ui, -apple-system, Helvetica, Arial, sans-serif" font-size="12">middleware.ts</text>

    <rect x="483" y="172" width="168" height="30" rx="6" fill="#242424"/>
    <text x="498" y="192" fill="#F0F0F2" font-family="system-ui, -apple-system, Helvetica, Arial, sans-serif" font-size="12">test-report.md</text>

    <!-- Search bar -->
    <rect x="483" y="218" width="168" height="28" rx="14" fill="#1A1A1A" stroke="#444" stroke-width="0.5"/>
    <text x="504" y="236" fill="#888" font-family="system-ui, -apple-system, Helvetica, Arial, sans-serif" font-size="11">Search artifacts...</text>

    <!-- Auto-extract badge -->
    <rect x="483" y="264" width="168" height="28" rx="6" fill="#0FFD0D" fill-opacity="0.08" stroke="#0FFD0D" stroke-width="0.6" stroke-opacity="0.35"/>
    <text x="498" y="282" fill="#0FFD0D" font-family="system-ui, -apple-system, Helvetica, Arial, sans-serif" font-size="10.5" opacity="0.8">Auto-extracted · 4 new</text>
  </g>

  <!-- ==================== CONNECTIONS ==================== -->

  <!-- Left connections: Window → Gateways (fan out to 3) -->
  <line x1="220" y1="342" x2="120" y2="400" stroke="#555" stroke-width="1" stroke-dasharray="3,3"/>
  <line x1="260" y1="342" x2="280" y2="400" stroke="#555" stroke-width="1" stroke-dasharray="3,3"/>
  <line x1="300" y1="342" x2="440" y2="400" stroke="#444" stroke-width="1" stroke-dasharray="3,3"/>

  <text x="140" y="374" fill="#888" font-family="system-ui, -apple-system, Helvetica, Arial, sans-serif" font-size="10" font-weight="500" letter-spacing="0.8">WEBSOCKET</text>

  <!-- Right connection: Window → Workspace -->
  <line x1="620" y1="342" x2="680" y2="400" stroke="#0FFD0D" stroke-width="1" stroke-opacity="0.3" stroke-dasharray="3,3"/>
  <text x="640" y="374" fill="#888" font-family="system-ui, -apple-system, Helvetica, Arial, sans-serif" font-size="10" font-weight="500" letter-spacing="0.8">LOCAL-FIRST</text>

  <!-- ==================== GATEWAY INSTANCES ==================== -->

  <!-- Gateway 1: Production (primary) -->
  <rect x="30" y="400" width="180" height="75" rx="10" fill="#1A1A1A" stroke="#3A3A3A" stroke-width="0.5"/>
  <circle cx="48" cy="420" r="4" fill="#0FFD0D"/>
  <text x="58" y="424" fill="#E0E0E0" font-family="system-ui, -apple-system, Helvetica, Arial, sans-serif" font-size="12" font-weight="600">Production</text>
  <text x="48" y="444" fill="#999" font-family="system-ui, -apple-system, Helvetica, Arial, sans-serif" font-size="10.5">12 agents · 8 tools</text>
  <text x="48" y="462" fill="#888" font-family="system-ui, -apple-system, Helvetica, Arial, sans-serif" font-size="10.5">Multi-model routing</text>

  <!-- Gateway 2: Staging -->
  <rect x="220" y="400" width="180" height="75" rx="10" fill="#1A1A1A" stroke="#3A3A3A" stroke-width="0.5"/>
  <circle cx="238" cy="420" r="4" fill="#FEBC2E"/>
  <text x="248" y="424" fill="#E0E0E0" font-family="system-ui, -apple-system, Helvetica, Arial, sans-serif" font-size="12" font-weight="600">Staging</text>
  <text x="238" y="444" fill="#999" font-family="system-ui, -apple-system, Helvetica, Arial, sans-serif" font-size="10.5">4 agents · 15 tools</text>
  <text x="238" y="462" fill="#888" font-family="system-ui, -apple-system, Helvetica, Arial, sans-serif" font-size="10.5">Multi-model routing</text>

  <!-- Gateway 3: Local -->
  <rect x="410" y="400" width="180" height="75" rx="10" fill="#161616" stroke="#333" stroke-width="0.5"/>
  <circle cx="428" cy="420" r="4" fill="#777"/>
  <text x="438" y="424" fill="#BBB" font-family="system-ui, -apple-system, Helvetica, Arial, sans-serif" font-size="12" font-weight="600">Local Dev</text>
  <text x="428" y="444" fill="#888" font-family="system-ui, -apple-system, Helvetica, Arial, sans-serif" font-size="10.5">2 agents · 3 tools</text>
  <text x="428" y="462" fill="#777" font-family="system-ui, -apple-system, Helvetica, Arial, sans-serif" font-size="10.5">localhost:18789</text>

  <!-- Label under gateways -->
  <text x="300" y="498" text-anchor="middle" fill="#777" font-family="system-ui, -apple-system, Helvetica, Arial, sans-serif" font-size="10" font-weight="500" letter-spacing="1.5">OPENCLAW GATEWAYS</text>

  <!-- ==================== WORKSPACE BOX ==================== -->
  <rect x="600" y="400" width="210" height="75" rx="10" fill="#0FFD0D" fill-opacity="0.05" stroke="#0FFD0D" stroke-width="0.6" stroke-opacity="0.3"/>
  <text x="705" y="424" text-anchor="middle" fill="#0FFD0D" font-family="system-ui, -apple-system, Helvetica, Arial, sans-serif" font-size="13" font-weight="600">Your Workspace</text>
  <text x="705" y="444" text-anchor="middle" fill="#999" font-family="system-ui, -apple-system, Helvetica, Arial, sans-serif" font-size="10.5">SQLite + FTS5 · Searchable</text>
  <text x="705" y="462" text-anchor="middle" fill="#888" font-family="system-ui, -apple-system, Helvetica, Arial, sans-serif" font-size="10.5">Tasks · Messages · Artifacts</text>

</svg>
